<svg width="443" height="325" viewBox="0 0 443 325" fill="none" xmlns="http://www.w3.org/2000/svg">
<g clip-path="url(#clip0_304_1847)">
<path d="M49.5029 84.5054H392.159" stroke="#DED8D5" stroke-width="1.97" stroke-miterlimit="10"/>
<path d="M387.685 62.0861H53.9768C51.506 62.0861 49.5029 64.0856 49.5029 66.5522V269.25C49.5029 271.716 51.506 273.716 53.9768 273.716H387.685C390.156 273.716 392.159 271.716 392.159 269.25V66.5522C392.159 64.0856 390.156 62.0861 387.685 62.0861Z" stroke="#DED8D5" stroke-width="1.97" stroke-miterlimit="10"/>
<path d="M72.0851 73.5252C72.0851 74.1443 71.9012 74.7495 71.5566 75.2643C71.2121 75.7791 70.7223 76.1803 70.1493 76.4172C69.5763 76.6542 68.9458 76.7161 68.3375 76.5954C67.7292 76.4746 67.1705 76.1764 66.7319 75.7387C66.2934 75.3009 65.9947 74.7431 65.8737 74.1359C65.7527 73.5286 65.8148 72.8992 66.0522 72.3272C66.2895 71.7553 66.6915 71.2664 67.2071 70.9224C67.7228 70.5784 68.3291 70.3948 68.9493 70.3948C69.781 70.3948 70.5786 70.7246 71.1667 71.3117C71.7548 71.8987 72.0851 72.695 72.0851 73.5252Z" fill="#FFB1A5"/>
<path d="M84.2646 73.5252C84.2646 74.1446 84.0805 74.7501 83.7356 75.265C83.3907 75.7799 82.9006 76.1812 82.3272 76.4179C81.7538 76.6546 81.1229 76.7162 80.5145 76.5949C79.906 76.4735 79.3472 76.1747 78.909 75.7362C78.4707 75.2978 78.1726 74.7393 78.0523 74.1317C77.9321 73.524 77.9952 72.8944 78.2336 72.3225C78.472 71.7506 78.875 71.2622 79.3916 70.9191C79.9082 70.5759 80.5151 70.3935 81.1356 70.3948C81.9661 70.3967 82.7619 70.7273 83.3485 71.3141C83.9351 71.901 84.2646 72.6961 84.2646 73.5252Z" fill="#EAD254"/>
<path d="M96.4511 73.5252C96.4511 74.1443 96.2672 74.7495 95.9226 75.2643C95.5781 75.7791 95.0883 76.1803 94.5153 76.4172C93.9423 76.6542 93.3118 76.7161 92.7035 76.5954C92.0952 76.4746 91.5365 76.1764 91.0979 75.7387C90.6594 75.3009 90.3607 74.7431 90.2397 74.1359C90.1187 73.5286 90.1808 72.8992 90.4182 72.3272C90.6555 71.7553 91.0574 71.2664 91.5731 70.9224C92.0888 70.5784 92.6951 70.3948 93.3153 70.3948C94.1464 70.3966 94.9429 70.727 95.5306 71.3137C96.1183 71.9004 96.4493 72.6955 96.4511 73.5252Z" fill="#00857B"/>
<path d="M436.671 77.4775H356.141C353.871 77.4775 352.031 79.3145 352.031 81.5805V155.928C352.031 158.194 353.871 160.031 356.141 160.031H436.671C438.941 160.031 440.781 158.194 440.781 155.928V81.5805C440.781 79.3145 438.941 77.4775 436.671 77.4775Z" fill="#EDEDED"/>
<path d="M436.671 77.4775H356.141C353.871 77.4775 352.031 79.3145 352.031 81.5805V155.928C352.031 158.194 353.871 160.031 356.141 160.031H436.671C438.941 160.031 440.781 158.194 440.781 155.928V81.5805C440.781 79.3145 438.941 77.4775 436.671 77.4775Z" stroke="#DED8D5" stroke-width="1.97" stroke-miterlimit="10"/>
<path d="M375.615 138.557H417.472C419.753 138.557 421.603 136.711 421.603 134.433V100.191C421.603 97.9139 419.753 96.0677 417.472 96.0677H375.615C373.334 96.0677 371.484 97.9139 371.484 100.191V134.433C371.484 136.711 373.334 138.557 375.615 138.557Z" fill="#FF5722"/>
<path d="M407.968 124.378H388.378H384.844V108.89H407.968V112.761V124.378Z" stroke="white" stroke-width="1.65" stroke-linecap="round" stroke-linejoin="round"/>
<path d="M384.844 108.89L396.406 117.987L407.968 108.89" stroke="white" stroke-width="1.65" stroke-linecap="round" stroke-linejoin="round"/>
<path d="M82.2816 147.619H5.47788C3.31399 147.619 1.55981 149.37 1.55981 151.53V218.377C1.55981 220.537 3.31399 222.288 5.47788 222.288H82.2816C84.4455 222.288 86.1997 220.537 86.1997 218.377V151.53C86.1997 149.37 84.4455 147.619 82.2816 147.619Z" fill="#EDEDED"/>
<path d="M82.2816 147.619H5.47788C3.31399 147.619 1.55981 149.37 1.55981 151.53V218.377C1.55981 220.537 3.31399 222.288 5.47788 222.288H82.2816C84.4455 222.288 86.1997 220.537 86.1997 218.377V151.53C86.1997 149.37 84.4455 147.619 82.2816 147.619Z" stroke="#DED8D5" stroke-width="1.97" stroke-miterlimit="10"/>
<path d="M63.6038 160.407H23.7713C21.255 160.407 19.2151 162.444 19.2151 164.956V203.355C19.2151 205.867 21.255 207.904 23.7713 207.904H63.6038C66.1202 207.904 68.1601 205.867 68.1601 203.355V164.956C68.1601 162.444 66.1202 160.407 63.6038 160.407Z" fill="#FF5722"/>
<path d="M34.2013 174.833C32.2666 176.764 30.9491 179.225 30.4153 181.903C29.8815 184.582 30.1554 187.359 31.2024 189.882C32.2494 192.405 34.0224 194.562 36.2973 196.079C38.5722 197.597 41.2467 198.407 43.9827 198.407C46.7187 198.407 49.3933 197.597 51.6682 196.079C53.9431 194.562 55.7161 192.405 56.7631 189.882C57.8101 187.359 58.084 184.582 57.5502 181.903C57.0164 179.225 55.6989 176.764 53.7642 174.833C51.1638 172.255 47.6476 170.808 43.9827 170.808C40.3179 170.808 36.8017 172.255 34.2013 174.833ZM53.723 176.819H49.3246C48.8682 175.391 48.2944 174.003 47.6092 172.668C50.0186 173.407 52.1492 174.854 53.723 176.819ZM38.9016 183.792C38.9096 181.986 39.1401 180.187 39.5878 178.436H48.4395C48.8723 180.189 49.0912 181.987 49.0913 183.792H38.9016ZM49.009 185.409C48.8772 187.22 48.5599 189.012 48.0621 190.759H39.9034C39.4056 189.012 39.0883 187.22 38.9565 185.409H49.009ZM43.9862 172.134C44.6389 172.134 45.2906 172.187 45.9349 172.292C46.7526 173.731 47.426 175.248 47.9454 176.819H39.9995C40.5342 175.246 41.2238 173.729 42.058 172.292C42.6955 172.188 43.3403 172.136 43.9862 172.134ZM40.3563 172.668C39.6711 174.003 39.0973 175.391 38.6409 176.819H34.2287C35.8062 174.852 37.9418 173.405 40.3563 172.668ZM33.1377 178.436H38.188C37.7579 180.19 37.5277 181.987 37.5018 183.792H31.5252C31.6463 181.907 32.1978 180.075 33.1377 178.436ZM33.1377 190.765C32.1997 189.128 31.6504 187.298 31.5321 185.416H37.5087C37.5994 187.223 37.88 189.016 38.3458 190.765H33.1377ZM34.2356 192.382H38.8261C39.2976 193.82 39.8638 195.225 40.521 196.588C38.037 195.868 35.8383 194.396 34.2287 192.375L34.2356 192.382ZM43.993 197.067C43.4447 197.068 42.897 197.033 42.3531 196.964C41.6068 195.482 40.9604 193.951 40.4181 192.382H47.5474C47.0051 193.951 46.3587 195.482 45.6124 196.964C45.0729 197.031 44.5297 197.063 43.9862 197.06L43.993 197.067ZM47.4239 196.581C48.0832 195.22 48.6516 193.818 49.1256 192.382H53.723C52.1161 194.398 49.9226 195.868 47.4445 196.588L47.4239 196.581ZM54.814 190.765H49.606C50.0707 189.016 50.3535 187.223 50.45 185.416H56.4677C56.34 187.298 55.7813 189.126 54.8346 190.759L54.814 190.765ZM56.4677 183.792H50.4911C50.462 181.987 50.2319 180.191 49.805 178.436H54.8552C55.7951 180.075 56.3467 181.907 56.4677 183.792Z" fill="white"/>
<path d="M77.7391 42.5575H8.12649C7.43676 42.5575 6.77529 42.284 6.28758 41.7971C5.79987 41.3103 5.52588 40.6499 5.52588 39.9614C5.52588 39.2723 5.79965 38.6113 6.28716 38.1233C6.77467 37.6354 7.43613 37.3603 8.12649 37.3585H77.7391C78.4306 37.3585 79.0939 37.6328 79.5828 38.1209C80.0718 38.609 80.3466 39.2711 80.3466 39.9614C80.3447 40.6506 80.0692 41.3109 79.5804 41.7975C79.0916 42.2842 78.4294 42.5575 77.7391 42.5575Z" fill="#FF5722"/>
<path d="M439.505 212.212H405.731C405.042 212.212 404.38 211.939 403.893 211.452C403.405 210.965 403.131 210.304 403.131 209.616C403.13 209.275 403.197 208.937 403.327 208.621C403.457 208.306 403.649 208.02 403.891 207.778C404.132 207.537 404.419 207.346 404.735 207.216C405.051 207.086 405.39 207.019 405.731 207.02H439.498C440.186 207.02 440.845 207.292 441.332 207.775C441.82 208.259 442.095 208.916 442.099 209.602C442.101 210.291 441.829 210.953 441.342 211.442C440.856 211.932 440.195 212.208 439.505 212.212Z" fill="#FF5722"/>
<path d="M415.859 234.481H411.729C410.645 234.481 409.766 235.358 409.766 236.44V240.31C409.766 241.392 410.645 242.269 411.729 242.269H415.859C416.943 242.269 417.822 241.392 417.822 240.31V236.44C417.822 235.358 416.943 234.481 415.859 234.481Z" fill="#FF5722"/>
<path d="M24.7046 252.482H20.5738C19.49 252.482 18.6113 253.359 18.6113 254.441V258.311C18.6113 259.393 19.49 260.27 20.5738 260.27H24.7046C25.7884 260.27 26.667 259.393 26.667 258.311V254.441C26.667 253.359 25.7884 252.482 24.7046 252.482Z" fill="#006BC0"/>
<path d="M340.538 19.0081H271.858C270.718 19.0081 269.793 19.9311 269.793 21.0698V37.8106C269.793 38.9493 270.718 39.8724 271.858 39.8724H340.538C341.678 39.8724 342.603 38.9493 342.603 37.8106V21.0698C342.603 19.9311 341.678 19.0081 340.538 19.0081Z" fill="#FF5722"/>
<path d="M279.708 26.4401H328.55" stroke="white" stroke-width="1.18" stroke-miterlimit="10"/>
<path d="M279.708 31.4472H299.6" stroke="white" stroke-width="1.18" stroke-miterlimit="10"/>
<path d="M277.718 37.5092V45.6467L287.963 37.5092H277.718Z" fill="#006BC0"/>
<path d="M137.148 0H171.807C172.983 0 174.11 0.466197 174.941 1.29603C175.773 2.12587 176.24 3.25137 176.24 4.42494V36.6873C176.236 37.8584 175.768 38.9804 174.937 39.8073C174.106 40.6342 172.98 41.0985 171.807 41.0985H138.562C137.011 41.0985 135.524 40.4836 134.428 39.3892C133.332 38.2947 132.716 36.8103 132.716 35.2625V4.43864C132.714 3.85639 132.827 3.27952 133.049 2.74108C133.271 2.20264 133.597 1.71322 134.009 1.30087C134.421 0.888528 134.91 0.561364 135.449 0.338134C135.988 0.114904 136.565 -2.79039e-06 137.148 0V0Z" fill="#FF5722"/>
<path d="M164.636 23.5974L162.139 21.1246C161.941 20.8945 161.697 20.7084 161.423 20.5786C161.149 20.4488 160.85 20.3781 160.547 20.3712C159.947 20.3848 159.376 20.6304 158.955 21.0561L157.541 22.474L157.274 22.337C157.123 22.2737 156.976 22.2005 156.835 22.1178C155.433 21.208 154.19 20.074 153.157 18.7615C152.696 18.2119 152.311 17.6038 152.011 16.9531C152.361 16.638 152.697 16.2682 152.978 15.9805L153.376 15.5832C153.604 15.3736 153.788 15.121 153.918 14.84C154.047 14.559 154.12 14.2552 154.131 13.9461C154.12 13.637 154.047 13.3332 153.918 13.0522C153.788 12.7712 153.604 12.5186 153.376 12.309L152.141 11.076C151.998 10.9369 151.865 10.7882 151.743 10.6308L150.899 9.79514C150.48 9.3657 149.908 9.11941 149.307 9.11017C149.009 9.11012 148.714 9.17085 148.44 9.28864C148.167 9.40642 147.92 9.57878 147.715 9.79514L146.165 11.3363C145.586 11.9195 145.228 12.6841 145.149 13.5009C145.099 14.6501 145.295 15.7968 145.725 16.8641C146.496 18.9908 147.66 20.9541 149.156 22.6521C151.103 24.9676 153.516 26.8485 156.238 28.173C157.483 28.8023 158.831 29.2058 160.217 29.3649H160.526C161.025 29.3728 161.521 29.2743 161.979 29.0758C162.436 28.8774 162.847 28.5836 163.182 28.2141L163.23 28.173C163.482 27.8903 163.76 27.6312 164.06 27.399L164.636 26.8236C164.856 26.6162 165.032 26.3661 165.151 26.0888C165.271 25.8114 165.333 25.5125 165.333 25.2105C165.333 24.9085 165.271 24.6096 165.151 24.3322C165.032 24.0549 164.856 23.8048 164.636 23.5974ZM163.614 25.892L163.086 26.4263C162.777 26.6866 162.509 27.0017 162.2 27.3099C161.998 27.5296 161.752 27.7042 161.478 27.8223C161.204 27.9403 160.907 27.9991 160.609 27.9949H160.389C159.188 27.8693 158.022 27.511 156.958 26.9401C154.422 25.6956 152.175 23.9338 150.364 21.7685C149.003 20.1756 147.914 18.3707 147.139 16.4257C146.727 15.5738 146.542 14.6299 146.604 13.6858C146.635 13.1935 146.859 12.7334 147.228 12.4049L148.731 10.9048C148.808 10.8141 148.902 10.7395 149.008 10.6854C149.114 10.6313 149.23 10.5988 149.348 10.5897C149.468 10.5947 149.585 10.6254 149.692 10.6798C149.798 10.7342 149.892 10.8109 149.966 10.9048L150.741 11.6446C150.875 11.8025 151.022 11.9491 151.181 12.083L152.422 13.3228C152.593 13.4873 152.701 13.7047 152.731 13.9392C152.712 14.177 152.602 14.3981 152.422 14.5557L152.025 14.953L150.913 16.0627L150.872 16.1038C150.715 16.2352 150.605 16.4131 150.557 16.6114C150.509 16.8098 150.525 17.0182 150.604 17.2066V17.2545C150.979 18.1128 151.47 18.915 152.066 19.6382C153.193 21.0763 154.555 22.315 156.094 23.3028C156.274 23.4266 156.467 23.53 156.67 23.6111C156.821 23.6765 156.968 23.7521 157.109 23.8371L157.157 23.8782C157.358 23.985 157.589 24.0215 157.813 23.9818C158.037 23.942 158.241 23.8284 158.392 23.659L159.943 22.111C160.102 21.9338 160.323 21.8236 160.561 21.8027C160.784 21.8315 160.989 21.9412 161.137 22.111L163.614 24.5837C163.713 24.662 163.792 24.7615 163.847 24.8747C163.902 24.988 163.93 25.1121 163.93 25.2379C163.93 25.3637 163.902 25.4878 163.847 25.6011C163.792 25.7143 163.713 25.8138 163.614 25.892Z" fill="white"/>
<path d="M316.419 196.78L291.366 193.451L291.565 195.93L270.15 198.78C270.15 198.78 256.344 233.35 268.496 309.376H285.918L292.19 232.282H294.413L300.486 309.376H317.901C330.087 233.35 316.419 196.78 316.419 196.78Z" fill="#8E716C"/>
<path d="M284.237 232.282H302.414" stroke="#282828" stroke-width="1.23" stroke-linecap="round" stroke-linejoin="round"/>
<path d="M331.041 160.284C328.9 156.859 316.865 156.989 316.227 156.914C312.974 156.53 318.285 182.381 325.085 204.979C325.394 205.999 325.914 206.942 326.612 207.748C327.31 208.555 328.17 209.205 329.136 209.657C330.102 210.109 331.153 210.354 332.221 210.374C333.288 210.394 334.347 210.189 335.33 209.774L335.46 209.712C337.047 209.04 338.358 207.85 339.179 206.337C339.999 204.823 340.28 203.076 339.975 201.383C336.757 184.313 333.518 164.257 331.041 160.284Z" fill="#FFB1A5"/>
<path d="M333.909 169.655L318.546 175.607L317.105 168.333L333.017 164.367L333.909 169.655Z" fill="#F3978E"/>
<path d="M336.812 184.217C336.812 184.217 329.531 193.978 329.881 193.526C330.231 193.074 335.59 177.771 335.59 177.771L336.812 184.217Z" fill="#F3978E"/>
<path d="M347.221 171.1L326.355 198.088C325.707 198.926 325.24 199.889 324.984 200.916C324.728 201.943 324.688 203.012 324.867 204.056C325.045 205.099 325.439 206.094 326.022 206.978C326.605 207.862 327.366 208.616 328.255 209.191C329.141 209.769 330.137 210.158 331.18 210.333C332.223 210.508 333.292 210.466 334.318 210.208C335.344 209.951 336.306 209.484 337.143 208.838C337.979 208.191 338.673 207.379 339.179 206.451L356.546 174.463L347.221 171.1Z" fill="#FFB1A5"/>
<path d="M352.628 178.032C351.007 177.51 349.577 176.52 348.519 175.187C347.461 173.853 346.824 172.237 346.686 170.542C346.549 168.847 346.919 167.149 347.748 165.664C348.578 164.178 349.83 162.972 351.347 162.197C352.864 161.422 354.576 161.114 356.269 161.311C357.961 161.509 359.556 162.202 360.853 163.305C362.15 164.408 363.091 165.87 363.555 167.506C364.02 169.142 363.988 170.879 363.463 172.497C362.76 174.665 361.224 176.465 359.193 177.503C357.161 178.54 354.8 178.731 352.628 178.032Z" fill="#FFB1A5"/>
<path d="M361.548 164.689C361.548 164.689 363.902 162.243 359.723 160.538C355.544 158.832 350.377 159.216 347.077 167.209L361.548 164.689Z" fill="#FFB1A5"/>
<path d="M365.878 147.633L374.613 151.414C374.729 151.466 374.832 151.542 374.916 151.637C375 151.732 375.063 151.844 375.1 151.965C375.138 152.086 375.149 152.214 375.134 152.339C375.119 152.465 375.077 152.586 375.011 152.695L363.518 174.127C363.395 174.369 363.187 174.557 362.933 174.654C362.68 174.752 362.399 174.752 362.145 174.655L353.403 170.874C353.287 170.821 353.184 170.744 353.1 170.648C353.016 170.552 352.954 170.44 352.917 170.318C352.88 170.196 352.869 170.068 352.886 169.942C352.902 169.816 352.945 169.694 353.012 169.586L364.506 148.153C364.63 147.913 364.839 147.726 365.092 147.63C365.345 147.534 365.625 147.535 365.878 147.633Z" fill="#372F5F"/>
<path d="M365.041 147.27L373.783 151.051C373.898 151.104 374.001 151.182 374.084 151.278C374.167 151.374 374.229 151.486 374.266 151.607C374.303 151.729 374.314 151.857 374.298 151.983C374.282 152.109 374.24 152.23 374.174 152.338L362.681 173.771C362.556 174.012 362.348 174.198 362.094 174.294C361.841 174.39 361.561 174.389 361.308 174.292L352.573 170.511C352.454 170.457 352.347 170.377 352.262 170.278C352.177 170.178 352.115 170.061 352.08 169.935C352.045 169.809 352.039 169.677 352.061 169.548C352.084 169.419 352.134 169.296 352.209 169.189L363.703 147.756C363.833 147.53 364.038 147.358 364.283 147.269C364.528 147.18 364.796 147.18 365.041 147.27Z" fill="#261B43"/>
<path d="M364.053 149.434L371.731 152.756L362.365 170.223L354.687 166.901L364.053 149.434Z" fill="#E6E6E6"/>
<path d="M371.731 152.756L354.687 166.901L364.053 149.434L371.731 152.756Z" fill="white"/>
<path d="M357.219 159.825C358.51 160.104 359.756 160.565 360.917 161.195C361.294 161.406 361.592 161.735 361.764 162.131C361.937 162.526 361.974 162.968 361.871 163.387C361.776 163.771 361.566 164.117 361.27 164.379C360.973 164.641 360.604 164.806 360.21 164.853L355.668 165.428C355.668 165.428 353.301 169.538 350.178 169.963L353.019 162.805L357.219 159.825Z" fill="#FFB1A5"/>
<path d="M299.203 126.323C298.702 126.323 331.419 130.837 336.812 168.107L319.836 170.703L316.405 198.787H269.059L259.658 146.852C259.658 146.852 270.15 131.837 289.63 126.303L299.203 126.323Z" fill="#56DFED"/>
<path d="M319.836 170.668L321.311 154.414" stroke="#282828" stroke-width="1.23" stroke-linecap="round" stroke-linejoin="round"/>
<path d="M302.311 126.851V113.918H287.133V127.008C285.72 127.451 284.343 128.003 283.016 128.659L294.859 135.7L306.963 128.659C305.495 127.863 303.932 127.255 302.311 126.851Z" fill="#FFB1A5"/>
<path d="M287.023 115.5C287.023 115.5 289.768 122.727 297.027 122.104C303.718 121.528 302.654 111.514 302.654 111.514L287.023 115.5Z" fill="#282828"/>
<path d="M280.367 105.89C277.986 108.041 272.668 99.8694 274.967 97.5747C277.265 95.28 279.022 98.883 279.022 98.883L280.044 101.322L280.82 104.623L281.005 105.493L280.367 105.89Z" fill="#F3978E"/>
<path d="M276.078 100.472C276.078 100.472 277.876 99.6638 279.509 102.267" stroke="#282828" stroke-width="0.99" stroke-linecap="round" stroke-linejoin="round"/>
<path d="M308.507 105.644C310.696 107.986 316.693 100.294 314.593 97.8144C312.494 95.3348 310.476 98.7734 310.476 98.7734L309.248 101.116L308.191 104.342L307.938 105.192L308.507 105.644Z" fill="#F3978E"/>
<path d="M313.242 100.602C313.242 100.602 311.519 99.6433 309.701 102.109" stroke="#282828" stroke-width="0.99" stroke-linecap="round" stroke-linejoin="round"/>
<path d="M276.195 89.7797C276.195 100.595 284.429 105.726 294.646 105.726C304.863 105.726 313.104 100.595 313.104 89.7797C313.104 78.9639 304.87 71.6005 294.646 71.6005C284.422 71.6005 276.195 78.9639 276.195 89.7797Z" fill="#282828"/>
<path d="M278.699 90.5332C278.708 96.0659 279.338 101.58 280.58 106.973C281.499 110.952 284.086 113.74 287.736 115.98L288.423 116.384C290.346 117.548 292.546 118.175 294.795 118.2C297.043 118.226 299.257 117.648 301.206 116.528C305.165 114.226 307.937 111.185 308.788 106.938C309.782 101.531 310.358 96.0558 310.511 90.5606C310.511 90.5606 311.986 73.7924 294.845 74.1212C277.705 74.45 278.699 90.5332 278.699 90.5332Z" fill="#FFB1A5"/>
<path d="M293.555 100.102V102.417C293.554 102.576 293.591 102.732 293.662 102.874C293.733 103.016 293.837 103.138 293.965 103.233C294.093 103.327 294.241 103.389 294.397 103.416C294.554 103.442 294.714 103.431 294.866 103.383L295.929 103.096" stroke="#282828" stroke-width="1.23" stroke-linecap="round" stroke-linejoin="round"/>
<path d="M290.831 91.1017L282.309 93.095C282.309 93.095 282.7 90.9305 286.186 90.1427C289.671 89.355 290.831 91.1017 290.831 91.1017Z" fill="#282828"/>
<path d="M298.393 91.1017L306.627 93.095C306.627 93.095 306.25 90.9305 302.887 90.1427C299.525 89.355 298.393 91.1017 298.393 91.1017Z" fill="#282828"/>
<path d="M287.592 98.7803C288.384 98.7803 289.026 98.1393 289.026 97.3487C289.026 96.558 288.384 95.9171 287.592 95.9171C286.8 95.9171 286.158 96.558 286.158 97.3487C286.158 98.1393 286.8 98.7803 287.592 98.7803Z" fill="#282828"/>
<path d="M302.654 97.3487C302.657 97.6337 302.574 97.9132 302.418 98.1515C302.261 98.3899 302.037 98.5764 301.774 98.6873C301.511 98.7983 301.221 98.8288 300.94 98.7748C300.66 98.7209 300.402 98.585 300.199 98.3844C299.996 98.1837 299.857 97.9275 299.801 97.6481C299.744 97.3687 299.772 97.0787 299.88 96.8151C299.989 96.5515 300.174 96.326 300.411 96.1673C300.648 96.0086 300.927 95.9239 301.213 95.9239C301.401 95.923 301.588 95.9591 301.762 96.0303C301.937 96.1014 302.095 96.2061 302.229 96.3384C302.363 96.4707 302.469 96.628 302.542 96.8013C302.615 96.9747 302.653 97.1607 302.654 97.3487Z" fill="#282828"/>
<path d="M289.033 106.082H300.108C300.108 106.082 295.202 112.041 289.033 106.082Z" fill="white"/>
<path d="M291.308 102.218C293.693 99.8373 293.693 95.9774 291.308 93.5966C288.923 91.2159 285.056 91.2159 282.672 93.5966C280.287 95.9774 280.287 99.8373 282.672 102.218C285.056 104.599 288.923 104.599 291.308 102.218Z" stroke="#FF5722" stroke-width="1.34" stroke-miterlimit="10"/>
<path d="M306.323 102.217C308.708 99.8363 308.708 95.9763 306.323 93.5956C303.938 91.2148 300.071 91.2149 297.686 93.5956C295.301 95.9763 295.301 99.8363 297.686 102.217C300.071 104.598 303.938 104.598 306.323 102.217Z" stroke="#FF5722" stroke-width="1.34" stroke-miterlimit="10"/>
<path d="M293.102 97.9103C293.473 97.5447 293.974 97.3397 294.495 97.3397C295.017 97.3397 295.517 97.5447 295.888 97.9103" stroke="#FF5722" stroke-width="1.34" stroke-miterlimit="10"/>
<path d="M280.882 97.9103L278.953 97.8555" stroke="#FF5722" stroke-width="1.34" stroke-miterlimit="10"/>
<path d="M308.109 97.9103L310.044 97.8555" stroke="#FF5722" stroke-width="1.34" stroke-miterlimit="10"/>
<path d="M310.27 96.0883C310.27 96.0883 303.409 86.8411 305.001 77.4707C306.662 78.4505 308.093 79.7742 309.199 81.3528C310.304 82.9314 311.058 84.7281 311.409 86.622C312.734 93.2183 310.27 96.0883 310.27 96.0883Z" fill="#282828"/>
<path d="M278.693 96.7185C278.693 96.7185 286.652 86.2109 285.074 76.8542C281.581 79.0808 279.114 82.5977 278.212 86.6356C276.902 93.2182 278.693 96.7185 278.693 96.7185Z" fill="#282828"/>
<path d="M309.667 81.1627C309.667 81.1627 300.87 90.7524 276.785 89.129C276.785 89.129 280.477 75.0185 292.142 73.5116C292.169 73.5116 305.646 71.9224 309.667 81.1627Z" fill="#282828"/>
<path d="M320.432 71.7493C321.444 65.49 317.181 59.5968 310.911 58.5863C304.641 57.5759 298.737 61.831 297.725 68.0902C296.713 74.3495 300.975 80.2428 307.245 81.2532C313.516 82.2637 319.419 78.0086 320.432 71.7493Z" fill="#282828"/>
<path d="M168.726 196.752L147.31 193.903L147.509 191.423L122.457 194.752C122.457 194.752 108.789 231.323 120.968 307.348H138.39L144.463 230.261H146.686L152.944 307.348H170.373C182.532 231.323 168.726 196.752 168.726 196.752Z" fill="#282828"/>
<path d="M167.017 92.7456C163.822 88.9204 161.382 84.5252 159.826 79.7928C157.706 73.8129 150.776 76.2446 150.776 76.2446C150.776 76.2446 144.998 68.8263 136.304 71.4087C127.61 73.991 124.591 80.1421 124.399 87.5124C124.207 94.8827 118.436 95.9993 113.983 104.493C106.119 119.487 119.362 132.118 143.488 128.618V128.378C146.36 129.173 149.35 129.453 152.32 129.207C181.297 127.488 178.504 106.233 167.017 92.7456Z" fill="#282828"/>
<path d="M157.535 103.863C159.916 106.014 165.24 97.8418 162.942 95.5472C160.643 93.2525 158.886 96.8555 158.886 96.8555L157.857 99.294L157.082 102.596L156.903 103.465L157.535 103.863Z" fill="#F3978E"/>
<path d="M161.83 98.4446C161.83 98.4446 160.025 97.6363 158.399 100.239" stroke="#282828" stroke-width="0.99" stroke-linecap="round" stroke-linejoin="round"/>
<path d="M129.394 103.616C127.206 105.959 121.215 98.2665 123.308 95.7869C125.401 93.3073 127.459 96.7459 127.459 96.7459L128.688 99.0885L129.738 102.315L129.998 103.164L129.394 103.616Z" fill="#F3978E"/>
<path d="M124.66 98.5748C124.66 98.5748 126.389 97.6227 128.201 100.082" stroke="#282828" stroke-width="0.99" stroke-linecap="round" stroke-linejoin="round"/>
<path d="M161.713 87.7522C161.713 98.5748 153.479 103.698 143.255 103.698C133.031 103.698 124.797 98.5748 124.797 87.7522C124.797 76.9296 133.031 69.5729 143.255 69.5729C153.479 69.5729 161.713 76.9364 161.713 87.7522Z" fill="#282828"/>
<path d="M150.776 111.891H135.591V131.515H150.776V111.891Z" fill="#FFB1A5"/>
<path d="M133.381 110.671C133.381 110.671 137.601 119.09 142.802 120.405C144.2 120.739 145.666 120.653 147.015 120.158C148.971 119.473 151.455 116.555 151.874 113.309L152.073 111.466C152.073 111.466 142.816 116.521 133.381 110.671Z" fill="#282828"/>
<path d="M159.202 88.5056C159.194 94.0384 158.564 99.5529 157.322 104.945C156.409 108.932 153.822 111.713 150.165 113.952L149.479 114.357C147.556 115.522 145.356 116.15 143.107 116.175C140.858 116.2 138.644 115.622 136.695 114.5C132.736 112.199 129.964 109.158 129.147 104.911C128.157 99.5031 127.582 94.028 127.425 88.533C127.425 88.533 125.95 71.7649 143.097 72.0936C160.245 72.4224 159.202 88.5056 159.202 88.5056Z" fill="#FFB1A5"/>
<path d="M142.109 98.9789V100.349C142.109 100.48 142.135 100.611 142.185 100.732C142.289 100.959 142.47 101.141 142.697 101.245C142.923 101.35 143.18 101.369 143.42 101.301L144.484 101.02" stroke="#282828" stroke-width="1.23" stroke-linecap="round" stroke-linejoin="round"/>
<path d="M145.67 89.8962L154.79 92.047C154.79 92.047 154.378 89.7112 150.673 88.855C146.967 87.9988 145.67 89.8962 145.67 89.8962Z" fill="#282828"/>
<path d="M140.867 89.8962L131.631 92.047C131.631 92.047 132.05 89.7112 135.831 88.855C139.612 87.9988 140.867 89.8962 140.867 89.8962Z" fill="#282828"/>
<path d="M137.587 95.5472C137.589 95.8319 137.505 96.1107 137.348 96.3482C137.19 96.5856 136.966 96.7711 136.702 96.881C136.439 96.9909 136.149 97.0204 135.869 96.9656C135.589 96.9109 135.332 96.7745 135.13 96.5736C134.928 96.3727 134.79 96.1164 134.734 95.8372C134.677 95.5579 134.705 95.2684 134.814 95.0051C134.923 94.7419 135.108 94.5168 135.345 94.3585C135.582 94.2001 135.861 94.1156 136.146 94.1156C136.335 94.1147 136.522 94.151 136.697 94.2226C136.872 94.2941 137.031 94.3994 137.165 94.5324C137.299 94.6655 137.405 94.8236 137.477 94.9977C137.55 95.1719 137.587 95.3586 137.587 95.5472Z" fill="#282828"/>
<path d="M151.208 95.5472C151.209 95.8319 151.126 96.1107 150.968 96.3482C150.811 96.5856 150.586 96.7711 150.323 96.881C150.06 96.9909 149.77 97.0204 149.49 96.9656C149.21 96.9109 148.953 96.7745 148.75 96.5736C148.548 96.3727 148.41 96.1164 148.354 95.8372C148.298 95.5579 148.326 95.2684 148.435 95.0051C148.544 94.7419 148.728 94.5168 148.966 94.3585C149.203 94.2001 149.482 94.1156 149.767 94.1156C149.956 94.1147 150.143 94.151 150.318 94.2226C150.493 94.2941 150.651 94.3994 150.785 94.5324C150.919 94.6655 151.026 94.8236 151.098 94.9977C151.171 95.1719 151.208 95.3586 151.208 95.5472Z" fill="#282828"/>
<path d="M136.634 103.698H149.245C149.245 103.698 148.353 107.157 142.638 107.157C141.416 107.183 140.21 106.875 139.152 106.265C138.093 105.655 137.222 104.767 136.634 103.698Z" fill="white"/>
<path d="M127.631 94.0608C127.631 94.0608 134.493 84.8136 132.908 75.4432C131.246 76.4233 129.814 77.747 128.707 79.3254C127.601 80.9039 126.845 82.7004 126.492 84.5944C125.168 91.1907 127.631 94.0608 127.631 94.0608Z" fill="#282828"/>
<path d="M159.216 93.7594C159.216 93.7594 151.249 84.1697 152.834 74.813C156.327 77.0396 158.794 80.5565 159.696 84.5944C161.006 91.1907 159.216 93.7594 159.216 93.7594Z" fill="#282828"/>
<path d="M128.207 79.1352C128.207 79.1352 136.071 89.6838 160.156 88.0399C160.156 88.0399 157.411 72.9704 145.746 71.4909C145.732 71.4909 132.256 69.8675 128.207 79.1352Z" fill="#282828"/>
<path d="M106.257 243.166C105.907 243.714 126.3 154.592 120.248 155.941C119.692 156.065 109.091 157.044 107.512 160.243C102.949 169.524 99.6968 242.481 99.6968 242.481L106.257 243.166Z" fill="#FFB1A5"/>
<path d="M99.6966 242.481C99.6966 242.481 96.4099 257.708 108.837 259.373C109.226 259.416 109.62 259.328 109.953 259.122C110.287 258.916 110.541 258.603 110.675 258.236V258.133C110.812 257.718 110.789 257.268 110.61 256.87C110.431 256.472 110.109 256.155 109.708 255.982C107.684 255.078 104.541 252.79 106.099 247.605C106.099 247.605 107.896 247.386 108.885 250.728C108.943 250.931 109.045 251.118 109.184 251.276C109.323 251.435 109.495 251.561 109.688 251.646C109.881 251.731 110.09 251.773 110.301 251.768C110.512 251.763 110.72 251.712 110.909 251.619C111.176 251.485 111.395 251.271 111.535 251.007C111.676 250.743 111.73 250.442 111.691 250.146C111.396 247.803 110.216 242.166 105.687 240.652L99.6966 242.481Z" fill="#FFB1A5"/>
<path d="M103.848 181.669C103.848 181.669 115.602 198.184 115.664 197.862C115.726 197.54 119.781 174.675 119.781 174.675L105.522 168.511L103.848 181.669Z" fill="#F3978E"/>
<path d="M136.496 128.289C136.997 128.289 107.457 128.816 102.064 166.045L119.04 168.641L122.471 196.725H169.817L179.218 144.79C179.218 144.79 172.534 133.57 153.054 128.09L136.496 128.289Z" fill="#00857B"/>
<path d="M122.059 132.789C122.059 132.789 126.231 138.324 143.331 138.324C160.279 138.324 164.602 132.502 164.602 132.502C164.602 132.502 154.611 126.926 143.022 125.124C135.698 126.648 128.636 129.23 122.059 132.789Z" fill="#FFB1A5"/>
<path d="M180.178 250.742L180.219 325H217.019L219.846 250.742H180.178Z" fill="#005683"/>
<path d="M260.077 250.742L260.036 325H223.236L220.409 250.742H260.077Z" fill="#005683"/>
<path d="M239.979 250.742H201.93V276.538H239.979V250.742Z" fill="#005683"/>
<path d="M207.248 276.538H233.487" stroke="#282828" stroke-width="1.4" stroke-linecap="round" stroke-linejoin="round"/>
<path d="M283.324 185.943C285.602 211.102 270.739 230.007 258.636 253.635L252.395 247.849L258.636 189.992L283.324 185.943Z" fill="#FFB1A5"/>
<path d="M261.339 205.575C261.339 205.575 274.939 204.335 284.237 198.211L283.99 192.82L261.346 195.903L261.339 205.575Z" fill="#F3978E"/>
<path d="M239.519 128.008C239.519 128.008 282.748 138.858 290.543 193.594C290.543 193.594 269.402 202.746 248.213 198.807L252.982 180.505L239.519 128.008Z" fill="#FF8661"/>
<path d="M110.477 150.77L142.645 188.69L132.798 216.363C132.798 216.363 108.349 182.436 97.3638 156.209L110.477 150.77Z" fill="#FFB1A5"/>
<path d="M111.533 152.14C111.533 152.14 100.239 158.51 97.3636 156.209C92.3408 152.181 88.1963 137.44 88.1963 137.44C88.1963 137.44 109.303 129.46 109.118 129.803C108.933 130.145 111.533 152.14 111.533 152.14Z" fill="#FFB1A5"/>
<path d="M111.533 152.14C111.334 151.003 115.719 138.762 117.222 134.166C117.301 133.893 117.322 133.606 117.282 133.325C117.243 133.043 117.144 132.773 116.992 132.532C116.84 132.291 116.639 132.085 116.402 131.928C116.165 131.77 115.897 131.665 115.616 131.618C115.124 131.488 114.603 131.522 114.132 131.715C113.662 131.908 113.267 132.249 113.008 132.687L107.704 141.721L111.533 152.14Z" fill="#FFB1A5"/>
<path d="M111.142 138.899L107.505 120.836C107.392 120.252 107.053 119.735 106.561 119.398C106.07 119.061 105.465 118.931 104.877 119.035C104.373 119.119 103.922 119.397 103.621 119.809C103.319 120.222 103.191 120.735 103.265 121.241L104.85 134.693L111.142 138.899Z" fill="#FFB1A5"/>
<path d="M103.91 132.241L98.9692 119.336C98.7672 118.792 98.3631 118.346 97.8406 118.091C97.3181 117.836 96.7173 117.791 96.1628 117.966C95.6964 118.121 95.3051 118.445 95.0663 118.873C94.8274 119.302 94.7584 119.805 94.8728 120.282L98.5369 135.187L103.91 132.241Z" fill="#FFB1A5"/>
<path d="M98.6057 136.043L92.3547 123.364C92.0778 122.799 91.5968 122.36 91.0086 122.135C90.4203 121.91 89.7686 121.916 89.1845 122.152C88.9223 122.265 88.6851 122.429 88.4866 122.634C88.2882 122.839 88.1325 123.081 88.0285 123.347C87.9244 123.612 87.8742 123.896 87.8807 124.181C87.8871 124.466 87.9501 124.747 88.0661 125.008L93.0477 136.995L98.6057 136.043Z" fill="#FFB1A5"/>
<path d="M88.1964 137.44L83.2902 129.673C83.1911 129.463 83.1346 129.235 83.1241 129.004C83.1136 128.772 83.1493 128.54 83.2291 128.323C83.3088 128.105 83.4311 127.905 83.5889 127.734C83.7466 127.564 83.9366 127.427 84.1479 127.33C84.5725 127.143 85.0489 127.11 85.4956 127.235C85.9424 127.36 86.3318 127.635 86.5976 128.015L93.0476 136.92L88.1964 137.44Z" fill="#FFB1A5"/>
<path d="M110.154 137.543C110.154 137.543 102.791 136.776 102.037 146.571" stroke="#282828" stroke-width="1.53" stroke-linecap="round" stroke-linejoin="round"/>
<path d="M126.272 203.438C126.272 203.438 132.324 224.336 144.38 221.555C156.437 218.774 175.224 193.074 175.224 193.074L171.018 149.188L137.182 190.759L126.272 203.438Z" fill="#FFB1A5"/>
<path d="M147.681 177.833C147.681 177.833 159.099 195.033 168.849 201.122L175.224 193.081L150.618 174.08L147.681 177.833Z" fill="#F3978E"/>
<path d="M197.662 127.063C197.662 127.063 164.122 134.598 146.247 173.518C146.247 173.518 157.047 189.765 174.38 196.985L185.97 182.806L197.662 127.063Z" fill="#FF8661"/>
<path d="M197.662 126.94C189.767 130.985 182.564 136.254 176.322 142.55L178.909 256.297H261.47L261.202 143.16C261.202 143.16 250.8 132.995 239.519 128.036C229.94 123.802 206.973 122.172 197.662 126.94Z" fill="#FF8661"/>
<path d="M225.267 159.442H248.233V170.901C248.233 173.942 247.023 176.859 244.869 179.009C242.715 181.16 239.793 182.368 236.747 182.368C233.701 182.366 230.781 181.157 228.629 179.007C226.476 176.857 225.267 173.941 225.267 170.901V159.442Z" stroke="#282828" stroke-width="1.4" stroke-linecap="round" stroke-linejoin="round"/>
<path d="M261.339 199.232L262.41 162.024" stroke="#282828" stroke-width="1.4" stroke-linecap="round" stroke-linejoin="round"/>
<path d="M177.591 193.033L175.807 160.777" stroke="#282828" stroke-width="1.4" stroke-linecap="round" stroke-linejoin="round"/>
<path d="M198.63 85.3958L195.199 68.4016C195.007 67.0317 194.465 64.874 195.123 62.867C196.214 59.5517 200.222 53.1678 207.07 56.0926L208.552 62.8191C208.552 62.8191 201.443 64.2507 198.589 73.5389L198.63 85.3958Z" fill="#282828"/>
<path d="M206.555 59.5928C206.432 61.8259 204.455 71.6004 197.511 75.1554C197.511 75.1623 191.432 62.1478 206.555 59.5928Z" fill="#282828"/>
<path d="M230.907 123.809V94.9512H204.256V123.809L196.317 127.405C196.317 127.405 198.184 139.372 217.863 139.639C237.543 139.906 239.519 127.994 239.519 127.994L230.907 123.809Z" fill="#FFB1A5"/>
<path d="M207.056 56.0926C207.056 56.0926 211.948 43.2082 227.031 50.058C236.164 54.1678 238.696 59.7572 239.807 63.6958C240.168 65.1997 240.307 66.7481 240.219 68.292L236.568 85.4164L222.323 61.73L208.538 62.8191L207.056 56.0926Z" fill="#282828"/>
<path d="M236.568 85.3959C236.568 85.3959 238.366 82.5395 242.058 83.9437C245.749 85.3479 244.116 94.3348 238.524 95.4787C237.9 95.5885 237.259 95.5627 236.646 95.4031C236.032 95.2436 235.461 94.9539 234.969 94.554C234.969 94.554 236.349 87.9166 236.568 85.3959Z" fill="#F3978E"/>
<path d="M241.337 87.1151C241.337 87.1151 238.229 86.0808 236.026 90.6428" stroke="#282828" stroke-width="1.4" stroke-linecap="round" stroke-linejoin="round"/>
<path d="M198.63 85.3959C198.63 85.3959 196.832 82.5395 193.14 83.9437C189.448 85.3479 191.082 94.3348 196.667 95.4787C197.291 95.5885 197.932 95.5627 198.545 95.4031C199.159 95.2436 199.73 94.9539 200.221 94.554C200.221 94.554 198.842 87.9166 198.63 85.3959Z" fill="#F3978E"/>
<path d="M193.861 87.1151C193.861 87.1151 196.962 86.0808 199.165 90.6428" stroke="#282828" stroke-width="1.4" stroke-linecap="round" stroke-linejoin="round"/>
<path d="M236.932 76.8679C236.932 82.2861 236.397 93.6155 233.062 100.342C229.933 106.657 224.752 110.062 217.966 110.26C211.18 110.459 206.116 107.849 202.061 99.657C198.005 91.4647 198.204 76.9706 198.204 76.9706C198.204 76.9706 198.204 57.6201 217.362 57.6201C237.536 57.6201 236.932 76.8679 236.932 76.8679Z" fill="#FFB1A5"/>
<path d="M204.455 103.692C204.455 103.692 206.685 115 216.546 116.302C227.888 117.795 230.907 103.972 230.907 103.972C230.907 103.972 225.898 110.247 217.966 110.254C215.365 110.242 212.8 109.646 210.461 108.51C208.123 107.374 206.07 105.727 204.455 103.692Z" fill="#282828"/>
<path d="M216.203 84.9369V89.4166C216.201 89.602 216.236 89.7859 216.306 89.9577C216.448 90.2762 216.7 90.5327 217.017 90.68C217.333 90.8272 217.692 90.8554 218.028 90.7592L219.517 90.3619" stroke="#282828" stroke-width="1.4" stroke-linecap="round" stroke-linejoin="round"/>
<path d="M210.548 82.7655C210.55 83.1113 210.448 83.4497 210.257 83.7378C210.066 84.0259 209.793 84.2509 209.473 84.3841C209.154 84.5174 208.802 84.553 208.462 84.4863C208.122 84.4197 207.809 84.2539 207.564 84.0099C207.319 83.7659 207.151 83.4547 207.083 83.1157C207.015 82.7767 207.049 82.4251 207.182 82.1055C207.314 81.786 207.538 81.5128 207.826 81.3205C208.114 81.1283 208.452 81.0257 208.799 81.0257C209.262 81.0257 209.706 81.2088 210.034 81.5349C210.362 81.861 210.547 82.3035 210.548 82.7655Z" fill="#282828"/>
<path d="M226.9 82.7655C226.901 83.1113 226.8 83.4497 226.609 83.7378C226.417 84.0259 226.144 84.2509 225.825 84.3841C225.505 84.5174 225.153 84.553 224.813 84.4863C224.473 84.4197 224.161 84.2539 223.916 84.0099C223.67 83.7659 223.503 83.4547 223.435 83.1157C223.367 82.7767 223.401 82.4251 223.533 82.1055C223.665 81.786 223.89 81.5128 224.178 81.3205C224.465 81.1283 224.804 81.0257 225.15 81.0257C225.613 81.0257 226.057 81.2088 226.385 81.5349C226.713 81.861 226.898 82.3035 226.9 82.7655Z" fill="#282828"/>
<path d="M220.69 74.1006L232.417 77.1282C232.417 77.1282 231.882 73.8403 227.085 72.6485C222.289 71.4566 220.69 74.1006 220.69 74.1006Z" fill="#282828"/>
<path d="M213.403 74.1006L201.676 77.1282C201.676 77.1282 202.212 73.8403 207.008 72.6485C211.804 71.4566 213.403 74.1006 213.403 74.1006Z" fill="#282828"/>
<path d="M211.07 93.8964C211.07 93.8964 212.799 95.2184 217.349 95.2184C219.657 95.2702 221.95 94.8191 224.066 93.8964" stroke="#282828" stroke-width="1.4" stroke-linecap="round" stroke-linejoin="round"/>
<path d="M208.332 90.6701C212.425 90.6701 215.743 87.3581 215.743 83.2724C215.743 79.1868 212.425 75.8747 208.332 75.8747C204.239 75.8747 200.921 79.1868 200.921 83.2724C200.921 87.3581 204.239 90.6701 208.332 90.6701Z" stroke="white" stroke-width="1.95" stroke-miterlimit="10"/>
<path d="M226.536 90.6701C230.629 90.6701 233.947 87.3581 233.947 83.2724C233.947 79.1868 230.629 75.8747 226.536 75.8747C222.444 75.8747 219.126 79.1868 219.126 83.2724C219.126 87.3581 222.444 90.6701 226.536 90.6701Z" stroke="white" stroke-width="1.95" stroke-miterlimit="10"/>
<path d="M215.743 83.2724C215.743 83.2724 217.5 81.6353 219.126 83.2724" stroke="white" stroke-width="1.95" stroke-miterlimit="10"/>
<path d="M200.921 83.2724L198.438 83.2108" stroke="white" stroke-width="1.95" stroke-miterlimit="10"/>
<path d="M233.947 83.2724L236.719 83.2313" stroke="white" stroke-width="1.95" stroke-miterlimit="10"/>
<path d="M204.455 60.0381C204.455 60.0381 208.017 70.1346 224.073 69.8264C234.983 69.614 237.591 77.4981 237.591 77.4981C237.591 77.4981 235.69 59.8737 235.196 60.0381C234.702 60.2025 218.591 55.7501 218.591 55.7501L204.455 60.0381Z" fill="#282828"/>
</g>
<defs>
<clipPath id="clip0_304_1847">
<rect width="441.225" height="325" fill="white" transform="translate(0.887451)"/>
</clipPath>
</defs>
</svg>
