<svg width="45" height="25" viewBox="0 0 45 25" fill="none" xmlns="http://www.w3.org/2000/svg">
<g id="icon">
<path id="Vector" fill-rule="evenodd" clip-rule="evenodd" d="M15.5491 16.0686C16.558 16.0683 17.5361 16.4237 18.3177 17.0744C19.0993 17.725 19.6365 18.6312 19.8383 19.6393H32.1807V1.78539H12.923L11.9168 0H32.1807C32.645 0 33.0903 0.188104 33.4186 0.52293C33.747 0.857757 33.9314 1.31188 33.9314 1.78539V5.35618H39.1835L44.4356 12.4638V21.4247H40.8467C40.6458 22.4337 40.109 23.3409 39.3273 23.9925C38.5456 24.6441 37.567 25 36.5575 25C35.5479 25 34.5693 24.6441 33.7876 23.9925C33.0059 23.3409 32.4691 22.4337 32.2682 21.4247H19.8383C19.6365 22.4329 19.0993 23.339 18.3177 23.9897C17.5361 24.6404 16.558 24.9957 15.5491 24.9955C14.5401 24.9957 13.562 24.6404 12.7804 23.9897C11.9988 23.339 11.4616 22.4329 11.2598 21.4247H7.6709L9.4216 19.6393H11.2598C11.4616 18.6312 11.9988 17.725 12.7804 17.0744C13.562 16.4237 14.5401 16.0683 15.5491 16.0686ZM13.6922 18.6383C14.1846 18.1361 14.8526 17.8539 15.5491 17.8539C16.2455 17.8539 16.9135 18.1361 17.4059 18.6383C17.8984 19.1406 18.1751 19.8218 18.1751 20.532C18.1751 21.2423 17.8984 21.9235 17.4059 22.4257C16.9135 22.928 16.2455 23.2101 15.5491 23.2101C14.8526 23.2101 14.1846 22.928 13.6922 22.4257C13.1997 21.9235 12.923 21.2423 12.923 20.532C12.923 19.8218 13.1997 19.1406 13.6922 18.6383ZM39.3261 17.0744C38.5445 16.4237 37.5664 16.0683 36.5575 16.0686C35.6103 16.0673 34.6884 16.3806 33.9314 16.9613V12.4978H42.2682L42.6849 13.0619V19.6393H40.8467C40.6449 18.6312 40.1077 17.725 39.3261 17.0744ZM34.7006 18.6383C35.193 18.1361 35.861 17.8539 36.5575 17.8539C37.2539 17.8539 37.9219 18.1361 38.4144 18.6383C38.9068 19.1406 39.1835 19.8218 39.1835 20.532C39.1835 21.2423 38.9068 21.9235 38.4144 22.4257C37.9219 22.928 37.2539 23.2101 36.5575 23.2101C35.861 23.2101 35.193 22.928 34.7006 22.4257C34.2081 21.9235 33.9314 21.2423 33.9314 20.532C33.9314 19.8218 34.2081 19.1406 34.7006 18.6383ZM33.9314 10.7124V7.14158H38.3082L40.95 10.7124H33.9314Z" fill="#455A64"/>
<path id="Vector_2" fill-rule="evenodd" clip-rule="evenodd" d="M16.2622 3.93378V5.35427H0.163086L1.16928 3.93378H16.2622ZM21.2931 9.61577V11.0363H3.06329L4.06948 9.61577H21.2931ZM11.2312 15.2978V16.7183H0.163086L1.16928 15.2978H11.2312Z" fill="#FF5722"/>
</g>
</svg>
