<svg width="31" height="30" viewBox="0 0 31 30" fill="none" xmlns="http://www.w3.org/2000/svg">
<path d="M15.1631 0C19.1413 0 22.9566 1.58035 25.7697 4.3934C28.5827 7.20644 30.1631 11.0218 30.1631 15C30.1631 18.9782 28.5827 22.7936 25.7697 25.6066C22.9566 28.4196 19.1413 30 15.1631 30C11.1848 30 7.36953 28.4196 4.55648 25.6066C1.74344 22.7936 0.163086 18.9782 0.163086 15C0.163086 11.0218 1.74344 7.20644 4.55648 4.3934C7.36953 1.58035 11.1848 0 15.1631 0ZM15.1631 1.57895C11.6036 1.57895 8.18991 2.99295 5.67297 5.50988C3.15603 8.02682 1.74203 11.4405 1.74203 15C1.74203 18.5595 3.15603 21.9732 5.67297 24.4901C8.18991 27.0071 11.6036 28.4211 15.1631 28.4211C18.7226 28.4211 22.1363 27.0071 24.6532 24.4901C27.1701 21.9732 28.5841 18.5595 28.5841 15C28.5841 11.4405 27.1701 8.02682 24.6532 5.50988C22.1363 2.99295 18.7226 1.57895 15.1631 1.57895Z" fill="#455A64"/>
<path d="M14.6075 6.00006H15.7186V8.12829C19.3742 8.27758 20.1631 9.9124 20.1631 11.2942H19.052C19.052 9.88911 17.7431 9.17652 15.1631 9.17652C14.252 9.17652 11.2742 9.34911 11.2742 11.5578C11.2742 12.4811 11.2742 13.5272 15.2975 14.4865L17.082 15C19.8964 15.99 20.1631 17.1939 20.1631 18.4423C20.1631 20.4339 18.4764 21.7172 15.7186 21.8675V24H14.6075V21.8718C10.952 21.7225 10.1631 20.0877 10.1631 18.7059H11.2742C11.2742 20.111 12.5831 20.8235 15.1631 20.8235C16.0742 20.8235 19.052 20.651 19.052 18.4423C19.052 17.519 19.052 16.4728 15.0286 15.5136L13.2442 15C10.4298 14.01 10.1631 12.8062 10.1631 11.5578C10.1631 9.56617 11.8498 8.28288 14.6075 8.13252V6.00006Z" fill="#FF5722"/>
</svg>
