<svg width="32" height="31" viewBox="0 0 32 31" fill="none" xmlns="http://www.w3.org/2000/svg">
<path d="M22.6672 29.4434C22.2145 29.8961 21.677 30.2553 21.0855 30.5004C20.494 30.7454 19.86 30.8715 19.2197 30.8715C18.5795 30.8715 17.9455 30.7454 17.354 30.5004C16.7625 30.2553 16.225 29.8961 15.7723 29.4434L2.24742 16.2435C1.26592 15.353 0.534668 14.0237 0.534668 12.5937V4.875C0.534668 3.58207 1.04828 2.34209 1.96252 1.42785C2.87676 0.513615 4.11674 0 5.40967 0H13.1284C14.5584 0 15.8877 0.732875 16.7782 1.71275L29.8968 15.3189C30.8107 16.2331 31.3242 17.4728 31.3242 18.7655C31.3242 20.0582 30.8107 21.2979 29.8968 22.2121L22.6656 29.4434H22.6672ZM21.5167 28.2945L28.7479 21.0632C29.3572 20.4538 29.6995 19.6273 29.6995 18.7655C29.6995 17.9037 29.3572 17.0772 28.7479 16.4677L15.3417 2.574C14.7957 1.94513 14.0254 1.625 13.1284 1.625L5.3658 1.58113C3.57342 1.58113 2.15967 3.07937 2.15967 4.875V12.5937C2.15967 13.4907 2.4798 14.261 3.10867 14.807L16.9212 28.2945C17.5306 28.9038 18.3572 29.2461 19.2189 29.2461C20.0807 29.2461 20.9072 28.9038 21.5167 28.2945ZM7.84718 3.25C8.92462 3.25 9.95793 3.67801 10.7198 4.43988C11.4817 5.20175 11.9097 6.23506 11.9097 7.3125C11.9097 8.38994 11.4817 9.42325 10.7198 10.1851C9.95793 10.947 8.92462 11.375 7.84718 11.375C6.76973 11.375 5.73642 10.947 4.97455 10.1851C4.21268 9.42325 3.78467 8.38994 3.78467 7.3125C3.78467 6.23506 4.21268 5.20175 4.97455 4.43988C5.73642 3.67801 6.76973 3.25 7.84718 3.25ZM7.84718 4.875C7.20071 4.875 6.58072 5.13181 6.1236 5.58893C5.66648 6.04605 5.40967 6.66603 5.40967 7.3125C5.40967 7.95896 5.66648 8.57895 6.1236 9.03607C6.58072 9.49319 7.20071 9.75 7.84718 9.75C8.49364 9.75 9.11363 9.49319 9.57075 9.03607C10.0279 8.57895 10.2847 7.95896 10.2847 7.3125C10.2847 6.66603 10.0279 6.04605 9.57075 5.58893C9.11363 5.13181 8.49364 4.875 7.84718 4.875Z" fill="#455A64"/>
<path d="M16.6378 19.7369C16.2749 20.0998 15.8553 20.2743 15.3792 20.2601C14.9031 20.2365 14.4576 20.0173 14.0427 19.6025C13.6279 19.1877 13.4111 18.7445 13.3922 18.2731C13.3734 17.7923 13.5454 17.3704 13.9084 17.0074C14.2714 16.6444 14.6909 16.4747 15.167 16.4983C15.6385 16.5172 16.0816 16.734 16.4964 17.1488C16.9112 17.5637 17.1304 18.0092 17.154 18.4853C17.1729 18.9567 17.0008 19.3739 16.6378 19.7369ZM16.9136 14.1154L17.7551 13.2739L19.3248 21.6036L18.4834 22.4451L16.9136 14.1154ZM16.058 19.157C16.2183 18.9967 16.2772 18.8058 16.2348 18.5843C16.1971 18.358 16.0486 18.1152 15.7893 17.8559C15.53 17.5967 15.2873 17.4482 15.061 17.4105C14.8394 17.368 14.6485 17.427 14.4882 17.5872C14.3327 17.7428 14.2761 17.9361 14.3185 18.1671C14.3562 18.3933 14.5024 18.6338 14.7569 18.8883C15.0115 19.1429 15.2543 19.2914 15.4852 19.3338C15.7115 19.3715 15.9024 19.3126 16.058 19.157ZM22.33 18.7115C22.0943 18.9472 21.828 19.1052 21.531 19.1853C21.234 19.256 20.93 19.2395 20.6188 19.1358C20.3077 19.0321 20.0154 18.8435 19.742 18.5701C19.4686 18.2967 19.2801 18.0044 19.1763 17.6933C19.0726 17.3822 19.0585 17.0805 19.1339 16.7882C19.2093 16.4865 19.3649 16.2178 19.6006 15.9821C19.9636 15.6191 20.3831 15.4494 20.8593 15.473C21.3354 15.4871 21.7809 15.7016 22.1957 16.1165C22.6105 16.5313 22.8274 16.9791 22.8462 17.46C22.8651 17.9314 22.693 18.3486 22.33 18.7115ZM21.7502 18.1317C21.9105 17.9714 21.9694 17.7805 21.927 17.559C21.8846 17.328 21.7361 17.0852 21.4815 16.8306C21.227 16.5761 20.9865 16.4299 20.7603 16.3922C20.534 16.3451 20.3407 16.4017 20.1804 16.5619C20.0249 16.7175 19.9659 16.9084 20.0037 17.1347C20.0414 17.361 20.1899 17.6037 20.4491 17.863C20.7084 18.1223 20.9512 18.2708 21.1775 18.3085C21.4037 18.3462 21.5947 18.2873 21.7502 18.1317Z" fill="#FF5722"/>
</svg>
