<svg width="41" height="40" viewBox="0 0 41 40" fill="none" xmlns="http://www.w3.org/2000/svg">
<path d="M20.2174 22.4708V23.3408H15.1874V22.6608L18.0374 19.9108C18.384 19.5774 18.6174 19.2908 18.7374 19.0508C18.8574 18.8041 18.9174 18.5574 18.9174 18.3108C18.9174 17.9441 18.7874 17.6608 18.5274 17.4608C18.274 17.2541 17.9074 17.1508 17.4274 17.1508C16.654 17.1508 16.0574 17.4041 15.6374 17.9108L14.9574 17.3208C15.2307 16.9874 15.5874 16.7274 16.0274 16.5408C16.474 16.3541 16.9707 16.2608 17.5174 16.2608C18.2507 16.2608 18.834 16.4374 19.2674 16.7908C19.7007 17.1374 19.9174 17.6108 19.9174 18.2108C19.9174 18.5841 19.8374 18.9374 19.6774 19.2708C19.5174 19.6041 19.214 19.9841 18.7674 20.4108L16.6274 22.4708H20.2174ZM26.944 21.6208H25.614V23.3408H24.644V21.6208H20.754V20.9208L24.334 16.3408H25.414L21.984 20.7608H24.674V19.2408H25.614V20.7608H26.944V21.6208Z" fill="#FF5722"/>
<path d="M1.46303 16.319L6.34439 24.7738L12.8051 20.8894L11.8288 19.1985L7.89271 21.6252C7.52052 18.7167 8.1666 15.7691 9.72119 13.2829C11.2758 10.7967 13.6431 8.92533 16.4209 7.98657C19.1988 7.0478 22.216 7.09954 24.96 8.13301C27.704 9.16648 30.0058 11.1179 31.4742 13.656C33.0336 16.3509 33.548 19.525 32.9195 22.5744C32.291 25.6239 30.5634 28.3359 28.0655 30.1946C25.5676 32.0533 22.4736 32.9288 19.3721 32.6548C16.2707 32.3807 13.3781 30.9762 11.2449 28.7083L9.51332 29.708C11.7833 32.2737 14.881 33.9623 18.2674 34.4801C21.6538 34.9979 25.1145 34.3121 28.0475 32.542C30.9805 30.7719 33.2001 28.0295 34.3201 24.792C35.4402 21.5546 35.3897 18.0269 34.1776 14.8227C32.9655 11.6186 30.6684 8.94082 27.686 7.2553C24.7036 5.56977 21.2246 4.98319 17.8544 5.5976C14.4842 6.21201 11.4361 7.98853 9.24035 10.6181C7.04461 13.2476 5.84024 16.5637 5.83678 19.9895L3.15398 15.3427L1.46303 16.319Z" fill="#455A64"/>
</svg>
