<svg width="39" height="29" viewBox="0 0 39 29" fill="none" xmlns="http://www.w3.org/2000/svg">
<g id="icon">
<g id="Subtract">
<mask id="path-1-inside-1_451_1617" fill="white">
<path fill-rule="evenodd" clip-rule="evenodd" d="M12.0252 26.7451V28.4167H23.7262V26.7451H22.0546V25.0735H27.5374V23.402H5.33892C4.45227 23.402 3.60193 23.0498 2.97497 22.4228C2.34801 21.7958 1.99579 20.9455 1.99579 20.0588V5.01471C1.99579 4.12805 2.34801 3.27771 2.97497 2.65075C3.60193 2.02379 4.45227 1.67157 5.33892 1.67157H30.4124C31.2991 1.67157 32.1494 2.02379 32.7764 2.65075C33.4033 3.27771 33.7556 4.12805 33.7556 5.01471V11.7737C34.35 11.8084 34.9237 11.9968 35.4271 12.3173V5.01471C35.4271 3.68473 34.8988 2.40921 33.9584 1.46877C33.0179 0.528334 31.7424 0 30.4124 0H5.33892C4.00894 0 2.73343 0.528334 1.79299 1.46877C0.852552 2.40921 0.324219 3.68473 0.324219 5.01471V20.0588C0.324219 21.3888 0.852552 22.6643 1.79299 23.6048C2.73343 24.5452 4.00894 25.0735 5.33892 25.0735H13.6968V26.7451H12.0252ZM15.3683 26.7451V25.0735H20.383V26.7451H15.3683Z"/>
</mask>
<path fill-rule="evenodd" clip-rule="evenodd" d="M12.0252 26.7451V28.4167H23.7262V26.7451H22.0546V25.0735H27.5374V23.402H5.33892C4.45227 23.402 3.60193 23.0498 2.97497 22.4228C2.34801 21.7958 1.99579 20.9455 1.99579 20.0588V5.01471C1.99579 4.12805 2.34801 3.27771 2.97497 2.65075C3.60193 2.02379 4.45227 1.67157 5.33892 1.67157H30.4124C31.2991 1.67157 32.1494 2.02379 32.7764 2.65075C33.4033 3.27771 33.7556 4.12805 33.7556 5.01471V11.7737C34.35 11.8084 34.9237 11.9968 35.4271 12.3173V5.01471C35.4271 3.68473 34.8988 2.40921 33.9584 1.46877C33.0179 0.528334 31.7424 0 30.4124 0H5.33892C4.00894 0 2.73343 0.528334 1.79299 1.46877C0.852552 2.40921 0.324219 3.68473 0.324219 5.01471V20.0588C0.324219 21.3888 0.852552 22.6643 1.79299 23.6048C2.73343 24.5452 4.00894 25.0735 5.33892 25.0735H13.6968V26.7451H12.0252ZM15.3683 26.7451V25.0735H20.383V26.7451H15.3683Z" fill="#455A64"/>
<path d="M12.0252 28.4167H11.0252V29.4167H12.0252V28.4167ZM12.0252 26.7451V25.7451H11.0252V26.7451H12.0252ZM23.7262 28.4167V29.4167H24.7262V28.4167H23.7262ZM23.7262 26.7451H24.7262V25.7451H23.7262V26.7451ZM22.0546 26.7451H21.0546V27.7451H22.0546V26.7451ZM22.0546 25.0735V24.0735H21.0546V25.0735H22.0546ZM27.5374 25.0735V26.0735H28.5374V25.0735H27.5374ZM27.5374 23.402H28.5374V22.402H27.5374V23.402ZM2.97497 22.4228L2.26786 23.1299H2.26786L2.97497 22.4228ZM2.97497 2.65075L2.26786 1.94365L2.26786 1.94365L2.97497 2.65075ZM32.7764 2.65075L32.0693 3.35786L32.0693 3.35786L32.7764 2.65075ZM33.7556 11.7737H32.7556V12.7171L33.6973 12.772L33.7556 11.7737ZM35.4271 12.3173L34.8901 13.1609L36.4271 14.1395V12.3173H35.4271ZM33.9584 1.46877L34.6655 0.761669V0.761668L33.9584 1.46877ZM1.79299 1.46877L1.08588 0.761668L1.79299 1.46877ZM1.79299 23.6048L1.08588 24.3119L1.08588 24.3119L1.79299 23.6048ZM13.6968 25.0735H14.6968V24.0735H13.6968V25.0735ZM13.6968 26.7451V27.7451H14.6968V26.7451H13.6968ZM15.3683 25.0735V24.0735H14.3683V25.0735H15.3683ZM15.3683 26.7451H14.3683V27.7451H15.3683V26.7451ZM20.383 25.0735H21.383V24.0735H20.383V25.0735ZM20.383 26.7451V27.7451H21.383V26.7451H20.383ZM13.0252 28.4167V26.7451H11.0252V28.4167H13.0252ZM23.7262 27.4167H12.0252V29.4167H23.7262V27.4167ZM22.7262 26.7451V28.4167H24.7262V26.7451H22.7262ZM22.0546 27.7451H23.7262V25.7451H22.0546V27.7451ZM21.0546 25.0735V26.7451H23.0546V25.0735H21.0546ZM27.5374 24.0735H22.0546V26.0735H27.5374V24.0735ZM28.5374 25.0735V23.402H26.5374V25.0735H28.5374ZM5.33892 24.402H27.5374V22.402H5.33892V24.402ZM2.26786 23.1299C3.08236 23.9444 4.18705 24.402 5.33892 24.402V22.402C4.71748 22.402 4.1215 22.1551 3.68207 21.7157L2.26786 23.1299ZM0.995786 20.0588C0.995786 21.2107 1.45336 22.3154 2.26786 23.1299L3.68207 21.7157C3.24265 21.2763 2.99579 20.6803 2.99579 20.0588H0.995786ZM0.995786 5.01471V20.0588H2.99579V5.01471H0.995786ZM2.26786 1.94365C1.45336 2.75814 0.995786 3.86284 0.995786 5.01471H2.99579C2.99579 4.39327 3.24265 3.79728 3.68207 3.35786L2.26786 1.94365ZM5.33892 0.67157C4.18705 0.67157 3.08236 1.12915 2.26786 1.94365L3.68207 3.35786C4.1215 2.91844 4.71748 2.67157 5.33892 2.67157V0.67157ZM30.4124 0.67157H5.33892V2.67157H30.4124V0.67157ZM33.4835 1.94365C32.669 1.12915 31.5643 0.67157 30.4124 0.67157V2.67157C31.0339 2.67157 31.6298 2.91843 32.0693 3.35786L33.4835 1.94365ZM34.7556 5.01471C34.7556 3.86284 34.298 2.75814 33.4835 1.94365L32.0693 3.35786C32.5087 3.79728 32.7556 4.39327 32.7556 5.01471H34.7556ZM34.7556 11.7737V5.01471H32.7556V11.7737H34.7556ZM33.6973 12.772C34.1182 12.7966 34.5275 12.93 34.8901 13.1609L35.9642 11.4738C35.3199 11.0635 34.5819 10.8203 33.8138 10.7754L33.6973 12.772ZM34.4271 5.01471V12.3173H36.4271V5.01471H34.4271ZM33.2512 2.17588C34.0041 2.92878 34.4271 3.94994 34.4271 5.01471H36.4271C36.4271 3.41951 35.7934 1.88965 34.6655 0.761669L33.2512 2.17588ZM30.4124 1C31.4772 1 32.4983 1.42298 33.2512 2.17588L34.6655 0.761668C33.5375 -0.366308 32.0076 -1 30.4124 -1V1ZM5.33892 1H30.4124V-1H5.33892V1ZM2.5001 2.17588C3.253 1.42298 4.27416 1 5.33892 1V-1C3.74372 -1 2.21386 -0.366309 1.08588 0.761668L2.5001 2.17588ZM1.32422 5.01471C1.32422 3.94994 1.7472 2.92878 2.5001 2.17588L1.08588 0.761668C-0.0420918 1.88965 -0.675781 3.41951 -0.675781 5.01471H1.32422ZM1.32422 20.0588V5.01471H-0.675781V20.0588H1.32422ZM2.5001 22.8977C1.7472 22.1448 1.32422 21.1236 1.32422 20.0588H-0.675781C-0.675781 21.654 -0.042092 23.1839 1.08588 24.3119L2.5001 22.8977ZM5.33892 24.0735C4.27416 24.0735 3.253 23.6506 2.5001 22.8977L1.08588 24.3119C2.21386 25.4399 3.74372 26.0735 5.33892 26.0735V24.0735ZM13.6968 24.0735H5.33892V26.0735H13.6968V24.0735ZM14.6968 26.7451V25.0735H12.6968V26.7451H14.6968ZM12.0252 27.7451H13.6968V25.7451H12.0252V27.7451ZM14.3683 25.0735V26.7451H16.3683V25.0735H14.3683ZM20.383 24.0735H15.3683V26.0735H20.383V24.0735ZM21.383 26.7451V25.0735H19.383V26.7451H21.383ZM15.3683 27.7451H20.383V25.7451H15.3683V27.7451Z" fill="#455A64" mask="url(#path-1-inside-1_451_1617)"/>
</g>
<g id="Vector">
<path d="M36.43 16.0203C37.0684 16.0203 37.6806 16.2866 38.132 16.7606C38.5834 17.2346 38.837 17.8774 38.837 18.5478V25.2875C38.837 25.9578 38.5834 26.6007 38.132 27.0747C37.6806 27.5487 37.0684 27.8149 36.43 27.8149H29.2088C28.5704 27.8149 27.9582 27.5487 27.5068 27.0747C27.0554 26.6007 26.8018 25.9578 26.8018 25.2875V18.5478C26.8018 17.8774 27.0554 17.2346 27.5068 16.7606C27.9582 16.2866 28.5704 16.0203 29.2088 16.0203V14.7566C29.2088 13.7512 29.5892 12.7869 30.2663 12.0759C30.9434 11.3649 31.8618 10.9655 32.8194 10.9655C33.777 10.9655 34.6953 11.3649 35.3725 12.0759C36.0496 12.7869 36.43 13.7512 36.43 14.7566V16.0203ZM29.2088 16.8628C28.7832 16.8628 28.3751 17.0403 28.0741 17.3563C27.7732 17.6723 27.6041 18.1009 27.6041 18.5478V25.2875C27.6041 25.7344 27.7732 26.163 28.0741 26.479C28.3751 26.7949 28.7832 26.9725 29.2088 26.9725H36.43C36.8556 26.9725 37.2637 26.7949 37.5647 26.479C37.8656 26.163 38.0347 25.7344 38.0347 25.2875V18.5478C38.0347 18.1009 37.8656 17.6723 37.5647 17.3563C37.2637 17.0403 36.8556 16.8628 36.43 16.8628H29.2088ZM35.6276 16.0203V14.7566C35.6276 13.9746 35.3318 13.2246 34.8051 12.6716C34.2785 12.1186 33.5642 11.808 32.8194 11.808C32.0746 11.808 31.3603 12.1186 30.8337 12.6716C30.307 13.2246 30.0112 13.9746 30.0112 14.7566V16.0203H35.6276Z" fill="#FF5722"/>
<path d="M31.6159 20.7914C31.6159 20.2391 32.0636 19.7914 32.6159 19.7914H33.0229C33.5752 19.7914 34.0229 20.2391 34.0229 20.7914V22.8032C34.0229 23.3555 33.5752 23.8032 33.0229 23.8032H32.6159C32.0636 23.8032 31.6159 23.3555 31.6159 22.8032V20.7914Z" fill="#FF5722"/>
</g>
<path id="Vector_2" d="M9.15039 7.90197V6.95374H26.8021V7.90197H9.15039ZM21.988 11.6949V12.6432H9.15039V11.6949H21.988ZM9.15039 16.4361H23.5927V17.3843H9.15039V16.4361Z" fill="#455A64"/>
</g>
</svg>
