<svg width="156" height="46" viewBox="0 0 156 46" fill="none" xmlns="http://www.w3.org/2000/svg">
<path d="M11.875 30.1699C11.875 31.7129 11.2793 33.0703 10.0879 34.2422C8.91602 35.4141 7.55859 36 6.01562 36C4.41406 36 3.04688 35.4434 1.91406 34.3301C0.800781 33.1973 0.244141 31.8301 0.244141 30.2285V15.9316C0.244141 14.3105 0.800781 12.9434 1.91406 11.8301C3.02734 10.7168 4.39453 10.1602 6.01562 10.1602C7.57812 10.1602 8.94531 10.707 10.1172 11.8008C11.2891 12.8945 11.875 14.2129 11.875 15.7559V30.1699ZM7.45117 29.9941V16.3711C7.45117 15.2773 6.98242 14.7305 6.04492 14.7305C5.12695 14.7305 4.66797 15.2773 4.66797 16.3711V29.9355C4.66797 31.1074 5.11719 31.6934 6.01562 31.6934C6.97266 31.6934 7.45117 31.127 7.45117 29.9941ZM20.2227 2.13281C20.2227 2.69922 20.0176 3.1875 19.6074 3.59766C19.1973 3.98828 18.709 4.18359 18.1426 4.18359C17.5957 4.18359 17.1172 3.97852 16.707 3.56836C16.2969 3.1582 16.0918 2.67969 16.0918 2.13281C16.0918 1.56641 16.2871 1.07812 16.6777 0.667969C17.0879 0.257812 17.5762 0.0527344 18.1426 0.0527344C18.709 0.0527344 19.1973 0.257812 19.6074 0.667969C20.0176 1.07812 20.2227 1.56641 20.2227 2.13281ZM22.8301 6.26367C22.8301 6.83008 22.625 7.31836 22.2148 7.72852C21.8047 8.11914 21.3164 8.31445 20.75 8.31445C20.2031 8.31445 19.7246 8.10938 19.3145 7.69922C18.9043 7.28906 18.6992 6.81055 18.6992 6.26367C18.6992 5.69727 18.8945 5.20898 19.2852 4.79883C19.6953 4.38867 20.1836 4.18359 20.75 4.18359C21.3164 4.18359 21.8047 4.38867 22.2148 4.79883C22.625 5.20898 22.8301 5.69727 22.8301 6.26367ZM17.791 6.26367C17.791 6.83008 17.5859 7.31836 17.1758 7.72852C16.7656 8.11914 16.2773 8.31445 15.7109 8.31445C15.1641 8.31445 14.6855 8.10938 14.2754 7.69922C13.8652 7.28906 13.6602 6.81055 13.6602 6.26367C13.6602 5.69727 13.8555 5.20898 14.2461 4.79883C14.6562 4.38867 15.1445 4.18359 15.7109 4.18359C16.2773 4.18359 16.7656 4.38867 17.1758 4.79883C17.5859 5.20898 17.791 5.69727 17.791 6.26367ZM23.5039 36H21.7461C20.8672 36 20.3984 35.9023 20.3398 35.707V36.6152C20.3398 40.0918 19.0898 43.002 16.5898 45.3457L13.2793 42.4453C15.0371 40.7852 15.916 38.5391 15.916 35.707V10.1602H20.3398V30.2285C20.3398 31.2051 20.8086 31.6934 21.7461 31.6934H23.5039V36ZM32.7891 40.1016C32.7891 40.668 32.584 41.1562 32.1738 41.5664C31.7637 41.9766 31.2754 42.1816 30.709 42.1816C30.1426 42.1816 29.6543 41.9766 29.2441 41.5664C28.8535 41.1562 28.6582 40.668 28.6582 40.1016C28.6582 39.5547 28.8633 39.0762 29.2734 38.666C29.6836 38.2559 30.1621 38.0508 30.709 38.0508C31.2754 38.0508 31.7637 38.2461 32.1738 38.6367C32.584 39.0469 32.7891 39.5352 32.7891 40.1016ZM27.75 40.1016C27.75 40.668 27.5449 41.1562 27.1348 41.5664C26.7246 41.9766 26.2363 42.1816 25.6699 42.1816C25.1035 42.1816 24.6152 41.9766 24.2051 41.5664C23.8145 41.1562 23.6191 40.668 23.6191 40.1016C23.6191 39.5547 23.8242 39.0762 24.2344 38.666C24.6445 38.2559 25.123 38.0508 25.6699 38.0508C26.2363 38.0508 26.7246 38.2461 27.1348 38.6367C27.5449 39.0469 27.75 39.5352 27.75 40.1016ZM30.2695 30.2871C30.2695 31.8496 29.6934 33.1973 28.541 34.3301C27.4082 35.4434 26.0508 36 24.4688 36H22.4766V31.6934H24.4688C25.3867 31.6934 25.8457 31.2246 25.8457 30.2871V10.1602H30.2695V30.2871ZM51.4199 36.5859C51.4199 40.0625 50.1699 42.9727 47.6699 45.3164L44.3594 42.416C46.1172 40.7559 46.9961 38.6172 46.9961 36C43.5 36 40.5312 34.7305 38.0898 32.1914C35.6484 29.6523 34.4277 26.625 34.4277 23.1094C34.4277 19.5547 35.6582 16.5176 38.1191 13.998C40.5996 11.459 43.6172 10.1895 47.1719 10.1895H51.3906L51.4199 36.5859ZM46.9668 31.6934V14.4961C44.8574 14.4961 42.9629 15.4043 41.2832 17.2207C39.6035 19.0176 38.7637 20.9805 38.7637 23.1094C38.7637 25.4531 39.5449 27.4551 41.1074 29.1152C42.6895 30.834 44.6426 31.6934 46.9668 31.6934ZM99.7852 28.998C99.7852 30.9512 99.2871 32.5723 98.291 33.8613C97.1973 35.2871 95.7031 36 93.8086 36C92.1289 36 90.9668 35.7461 90.3223 35.2383C89.4824 35.7461 88.3398 36 86.8945 36C85.332 36 84.1992 35.7266 83.4961 35.1797C80.9766 39.5742 77.3145 41.7715 72.5098 41.7715C68.9551 41.7715 65.9277 40.5215 63.4277 38.0215C60.9277 35.5215 59.6777 32.4941 59.6777 28.9395V10.1602H64.1016V28.9395C64.1016 31.2832 64.9121 33.2754 66.5332 34.916C68.1738 36.5371 70.166 37.3477 72.5098 37.3477C75.0098 37.3477 77.0508 36.4492 78.6328 34.6523C80.1758 32.9336 80.9473 30.8145 80.9473 28.2949V10.1602H85.3711V29.3496C85.3711 30.9121 85.8301 31.6934 86.748 31.6934C87.4121 31.6934 87.832 31.4883 88.0078 31.0781C88.1055 30.8438 88.1543 30.2676 88.1543 29.3496V10.1602H92.5781V29.3496C92.5781 30.2285 92.6367 30.8047 92.7539 31.0781C92.9297 31.4883 93.3203 31.6934 93.9258 31.6934C94.6484 31.6934 95.0977 31.459 95.2734 30.9902C95.332 30.834 95.3613 30.2773 95.3613 29.3203V10.1602H99.7852V28.998ZM92.4609 2.13281C92.4609 2.69922 92.2559 3.1875 91.8457 3.59766C91.4355 3.98828 90.9473 4.18359 90.3809 4.18359C89.834 4.18359 89.3555 3.97852 88.9453 3.56836C88.5352 3.1582 88.3301 2.67969 88.3301 2.13281C88.3301 1.56641 88.5254 1.07812 88.916 0.667969C89.3262 0.257812 89.8145 0.0527344 90.3809 0.0527344C90.9473 0.0527344 91.4355 0.257812 91.8457 0.667969C92.2559 1.07812 92.4609 1.56641 92.4609 2.13281ZM95.0684 6.26367C95.0684 6.83008 94.8633 7.31836 94.4531 7.72852C94.043 8.11914 93.5547 8.31445 92.9883 8.31445C92.4414 8.31445 91.9629 8.10938 91.5527 7.69922C91.1426 7.28906 90.9375 6.81055 90.9375 6.26367C90.9375 5.69727 91.1328 5.20898 91.5234 4.79883C91.9336 4.38867 92.4219 4.18359 92.9883 4.18359C93.5547 4.18359 94.043 4.38867 94.4531 4.79883C94.8633 5.20898 95.0684 5.69727 95.0684 6.26367ZM90.0293 6.26367C90.0293 6.83008 89.8242 7.31836 89.4141 7.72852C89.0039 8.11914 88.5156 8.31445 87.9492 8.31445C87.4023 8.31445 86.9238 8.10938 86.5137 7.69922C86.1035 7.28906 85.8984 6.81055 85.8984 6.26367C85.8984 5.69727 86.0938 5.20898 86.4844 4.79883C86.8945 4.38867 87.3828 4.18359 87.9492 4.18359C88.5156 4.18359 89.0039 4.38867 89.4141 4.79883C89.8242 5.20898 90.0293 5.69727 90.0293 6.26367ZM119.061 36.5859C119.061 40.0625 117.811 42.9727 115.311 45.3164L112 42.416C113.758 40.7559 114.637 38.6172 114.637 36C111.141 36 108.172 34.7305 105.73 32.1914C103.289 29.6523 102.068 26.625 102.068 23.1094C102.068 19.5547 103.299 16.5176 105.76 13.998C108.24 11.459 111.258 10.1895 114.812 10.1895H119.031L119.061 36.5859ZM114.607 31.6934V14.4961C112.498 14.4961 110.604 15.4043 108.924 17.2207C107.244 19.0176 106.404 20.9805 106.404 23.1094C106.404 25.4531 107.186 27.4551 108.748 29.1152C110.33 30.834 112.283 31.6934 114.607 31.6934ZM129.254 36H128.961C128.082 36 127.613 35.9023 127.555 35.707V36.6152C127.555 40.0918 126.305 43.002 123.805 45.3457L120.494 42.4453C122.252 40.7852 123.131 38.5391 123.131 35.707V10.1602H127.555V30.2285C127.555 31.2051 128.023 31.6934 128.961 31.6934H129.254V36ZM145.131 6.05859C145.131 7.5625 144.359 8.31445 142.816 8.31445C142.191 8.31445 141.654 8.09961 141.205 7.66992C140.775 7.2207 140.561 6.68359 140.561 6.05859C140.561 5.43359 140.775 4.89648 141.205 4.44727C141.654 3.99805 142.191 3.77344 142.816 3.77344C143.461 3.77344 144.008 3.99805 144.457 4.44727C144.906 4.87695 145.131 5.41406 145.131 6.05859ZM155.971 22.9922C155.971 26.3906 154.857 29.3398 152.631 31.8398C150.17 34.6133 146.957 36 142.992 36H128.168V31.6934H133.383C131.195 29.2715 130.102 26.3906 130.102 23.0508C130.102 19.457 131.352 16.4102 133.852 13.9102C136.352 11.4102 139.398 10.1602 142.992 10.1602C146.586 10.1602 149.643 11.4004 152.162 13.8809C154.701 16.3613 155.971 19.3984 155.971 22.9922ZM151.605 23.0215C151.586 20.6191 150.746 18.5879 149.086 16.9277C147.426 15.248 145.395 14.4082 142.992 14.4082C140.59 14.4082 138.549 15.248 136.869 16.9277C135.209 18.5879 134.369 20.6191 134.35 23.0215C134.33 25.4824 135.141 27.5527 136.781 29.2324C138.441 30.8926 140.502 31.7227 142.963 31.7227C145.385 31.7227 147.436 30.8828 149.115 29.2031C150.795 27.5039 151.625 25.4434 151.605 23.0215Z" fill="white"/>
</svg>
